# AST/ASF file generated using VICON BodyLanguage
# -----------------------------------------------
:version 1.10
:name VICON
:units
  mass 1.0
  length 0.45
  angle deg
:documentation
   .ast/.asf automatically generated from VICON data using
   VICON BodyBuilder and BodyLanguage model FoxedUp or BRILLIANT.MOD
:root
   order TX TY TZ RX RY RZ
   axis XYZ
   position 0 0 0  
   orientation 0 0 0 
:bonedata
  begin
     id 1 
     name lhipjoint
     direction 0.570549 -0.739093 0.358072 
     length 2.41801 
     axis 0 0 0  XYZ
  end
  begin
     id 2 
     name lfemur
     direction 0.34202 -0.939693 0  
     length 7.44434  
     axis 0 0 20  XYZ
    dof rx ry rz
    limits (-160.0 20.0)
           (-70.0 70.0)
           (-60.0 70.0)
  end
  begin
     id 3 
     name ltibia
     direction 0.34202 -0.939693 0   
     length 7.60047   
     axis 0 0 20   XYZ
    dof rx
    limits (-10.0 170.0)
  end
  begin
     id 4 
     name lfoot
     direction 0.0909041 -0.249757 0.964032   
     length 2.03437   
     axis -90 7.62852e-016 20   XYZ
    dof rx rz
    limits (-45.0 90.0)
           (-70.0 20.0)
  end
  begin
     id 5 
     name ltoes
     direction 1.53547e-011 -4.2174e-011 1   
     length 1.02054   
     axis -90 7.62852e-016 20   XYZ
    dof rx
    limits (-90.0 20.0)
  end
  begin
     id 6 
     name rhipjoint
     direction -0.558096 -0.746754 0.361784   
     length 2.3932  
     axis 0 0 0  XYZ 
  end
  begin
     id 7 
     name rfemur
     direction -0.34202 -0.939693 0   
     length 7.3886   
     axis 0 0 -20   XYZ
    dof rx ry rz
    limits (-160.0 20.0)
           (-70.0 70.0)
           (-70.0 60.0)
  end
  begin
     id 8 
     name rtibia
     direction -0.34202 -0.939693 0   
     length 7.4839   
     axis 0 0 -20   XYZ
    dof rx
    limits (-10.0 170.0)
 end
 begin
     id 9 
     name rfoot
     direction -0.114619 -0.314914 0.942174   
     length 2.25127  
     axis -90 -7.62852e-016 -20   XYZ
    dof rx rz
    limits (-45.0 90.0)
           (-20.0 70.0)
  end
  begin
     id 10 
     name rtoes
     direction -1.53518e-011 -4.21881e-011 1   
     length 1.11821   
     axis -90 -7.62852e-016 -20   XYZ
    dof rx
    limits (-90.0 20.0)
  end
  begin
     id 11 
     name lowerback
     direction -0.00902269 0.996426 -0.0839821   
     length 2.25052   
     axis 0 0 0   XYZ
    dof rx ry rz
    limits (-20.0 45.0)
           (-30.0 30.0)
           (-30.0 30.0)
  end
  begin
     id 12 
     name upperback
     direction 0.0370973 0.999169 -0.0168941   
     length 2.24876   
     axis 0 0 0   XYZ
    dof rx ry rz
    limits (-20.0 45.0)
           (-30.0 30.0)
           (-30.0 30.0)
  end
  begin
     id 13 
     name thorax
     direction 0.0402726 0.998931 0.0227027   
     length 2.26408   
     axis 0 0 0   XYZ
    dof rx ry rz
    limits (-20.0 45.0)
           (-30.0 30.0)
           (-30.0 30.0)
  end
  begin
     id 14 
     name lowerneck
     direction -0.0733697 0.98508 0.155675   
     length 1.58204   
     axis 0 0 0   XYZ
    dof rx ry rz
    limits (-20.0 45.0)
           (-30.0 30.0)
           (-30.0 30.0)
  end
  begin
     id 15 
     name upperneck
     direction 0.0426554 0.993501 -0.105526   
     length 1.61222   
     axis 0 0 0   XYZ
    dof rx ry rz
    limits (-20.0 45.0)
           (-30.0 30.0)
           (-30.0 30.0)
  end
  begin
     id 16
     name head
     direction 0.020792 0.998384 -0.0528868  
     length 1.61527  
     axis 0 0 0   XYZ
    dof rx ry rz
    limits (-20.0 45.0)
           (-30.0 30.0)
           (-30.0 30.0)
  end
  begin
     id 17 
     name lclavicle
     direction 0.967109 0.155462 -0.201325  
     length 3.59357  
     axis 0 0 0   XYZ
    dof ry rz
    limits (-20.0 10.0)
           (0.0 20.0)
  end
  begin
     id 18 
     name lhumerus
     direction 1 -4.48968e-011 2.38195e-027   
     length 5.38154   
     axis 180 -30 -90   XYZ
    dof rx ry rz
    limits (-60.0 90.0)
           (-90.0 90.0)
           (-90.0 90.0)
  end
  begin
     id 19
     name lradius
     direction 1 -4.48961e-011 4.85371e-027   
     length 3.33312   
     axis 180 -30 -90   XYZ
    dof rx
    limits (-10.0 170.0)
  end
  begin
     id 20
     name lwrist
     direction 1 -4.48961e-011 4.76515e-027   
     length 1.66656   
     axis -3.27502e-015 90 90   XYZ
    dof ry
    limits (-180.0 0.0)
 end
  begin
     id 21 
     name lhand
     direction 1 -4.48951e-011 9.53074e-027   
     length 0.710789   
     axis -6.08098e-015 90 90   XYZ
    dof rx rz
    limits (-90.0 90.0)
           (-45.0 45.0)
  end
  begin
     id 22 
     name lfingers
     direction 1 -4.48953e-011 1.90613e-026   
     length 0.573057   
     axis -1.21619e-014 90 90   XYZ
    dof rx
    limits (0.0 90.0)
  end
  begin
     id 23
     name lthumb
     direction 0.707107 -6.34973e-011 0.707107   
     length 0.822798   
     axis -90 45 -9.86923e-015   XYZ
    dof rx rz
    limits (-45.0 45.0)
           (-45.0 45.0)
  end
  begin
     id 24 
     name rclavicle
     direction -0.9585 0.265289 -0.104398   
     length 3.42039  
     axis 0 0 0   XYZ 
    dof ry rz
    limits (-10.0 20.0)
           (-20.0 0.0)
  end
  begin
     id 25 
     name rhumerus
     direction -1 -4.48977e-011 2.21478e-027  
     length 5.16954   
     axis 180 30 90   XYZ
    dof rx ry rz
    limits (-90.0 60.0)
           (-90.0 90.0)
           (-90.0 90.0)
  end
  begin
     id 26 
     name rradius
     direction -1 -4.48967e-011 5.63677e-027   
     length 3.38287   
     axis 180 30 90   XYZ
    dof rx
    limits (-10.0 170.0)
  end
  begin
     id 27 
     name rwrist
     direction -1 -4.48967e-011 4.76501e-027   
     length 1.69144   
     axis -3.27502e-015 -90 -90   XYZ
    dof ry
    limits (-180.0 0.0)
  end
  begin
     id 28
     name rhand
     direction -1 -4.48902e-011 9.53292e-027   
     length 0.817967   
     axis -6.08098e-015 -90 -90   XYZ
    dof rx rz
    limits (-90.0 90.0)
           (-45.0 45.0)
  end
  begin
     id 29
     name rfingers
     direction -1 -4.49012e-011 1.90561e-026   
     length 0.659466   
     axis -1.21619e-014 -90 -90   XYZ
    dof rx
    limits (0.0 90.0)
  end
  begin
     id 30
     name rthumb
     direction -0.707107 -6.34944e-011 0.707107   
     length 0.946865   
     axis -90 -45 9.86923e-015   XYZ
    dof rx rz
    limits (-45.0 45.0)
           (-45.0 45.0)
  end
:hierarchy
  begin
    root lhipjoint rhipjoint lowerback
    lhipjoint lfemur
    lfemur ltibia
    ltibia lfoot
    lfoot ltoes
    rhipjoint rfemur
    rfemur rtibia
    rtibia rfoot
    rfoot rtoes
    lowerback upperback
    upperback thorax
    thorax lowerneck lclavicle rclavicle
    lowerneck upperneck
    upperneck head
    lclavicle lhumerus
    lhumerus lradius
    lradius lwrist
    lwrist lhand lthumb
    lhand lfingers
    rclavicle rhumerus
    rhumerus rradius
    rradius rwrist
    rwrist rhand rthumb
    rhand rfingers
  end

#!OML:ASF F:\twosubjects\two\wednesday\Session 1\Justin1.ASF
:FULLY-SPECIFIED
:DEGREES
65
root -10.3308 16.8927 -16.8331 -95.4575 78.9117 -105.857
lowerback 8.17053 5.69936 9.24831
upperback 0.313239 8.74312 3.77134
thorax -3.46752 4.26939 -2.09017
lowerneck -8.78888 -13.6853 -14.977
upperneck 12.161 -18.043 11.2275
head 7.56377 -8.62846 4.00882
rclavicle 3.57812e-014 6.36111e-015
rhumerus 20.2745 -22.3644 -60.7254
rradius 43.3635
rwrist -56.2821
rhand -25.0821 7.70301
rfingers 7.12502
rthumb 1.43231 -22.2719
lclavicle 3.57812e-014 6.36111e-015
lhumerus -34.2779 19.092 68.6619
lradius 24.6984
lwrist -19.6686
lhand 0.253994 34.1254
lfingers 7.12502
lthumb 25.8336 62.391
rfemur -8.9359 -10.0268 27.3597
rtibia 25.9616
rfoot -22.5676 -19.4584
rtoes 3.33812
lfemur -36.4738 5.43544 -4.97976
ltibia 52.8085
lfoot -20.9514 4.72713
ltoes -1.60423
66
root -10.267 16.8872 -16.8901 -97.529 79.3189 -108.434
lowerback 7.9373 5.71281 8.58192
upperback 0.257003 8.65777 3.59796
thorax -3.47105 4.23171 -1.88657
lowerneck -8.68035 -13.7623 -15.2017
upperneck 11.8224 -18.1769 11.6461
head 7.51708 -8.68189 4.16274
rclavicle 5.64548e-014 8.74653e-015
rhumerus 19.8368 -21.6961 -60.1802
rradius 44.8876
rwrist -57.5412
rhand -31.354 9.52041
rfingers 7.12502
rthumb -4.62501 -20.4091
lclavicle 5.64548e-014 8.74653e-015
lhumerus -34.1838 19.0468 68.5725
lradius 24.5741
lwrist -19.4496
lhand 0.372015 34.3841
lfingers 7.12502
lthumb 25.9467 62.6332
rfemur -9.02125 -8.91912 26.7416
rtibia 25.7026
rfoot -22.8041 -20.5391
rtoes 4.10275
lfemur -37.0981 5.28358 -5.48442
ltibia 52.0204
lfoot -20.399 5.83835
ltoes -6.05826
67
root -10.1622 16.8887 -16.9599 -104.293 80.3959 -115.199
lowerback 7.62508 5.56562 7.20869
upperback 0.502547 8.2549 3.2731
thorax -3.21111 4.06035 -1.4083
lowerneck -8.68343 -13.8808 -15.35
upperneck 11.6152 -18.3453 11.8956
head 7.51327 -8.75417 4.23741
rclavicle 1.37161e-014 2.78299e-014
rhumerus 19.3826 -21.2938 -59.6819
rradius 46.481
rwrist -58.3894
rhand -36.7146 11.6149
rfingers 7.12502
rthumb -9.79934 -18.1371
lclavicle 1.37161e-014 2.78299e-014
lhumerus -34.0206 18.2985 68.8427
lradius 24.4495
lwrist -18.5162
lhand 0.396621 34.4136
lfingers 7.12502
lthumb 25.9702 62.6592
rfemur -8.29326 -11.0757 24.701
rtibia 25.3729
rfoot -22.5156 -18.9849
rtoes 3.9685
lfemur -36.9713 4.63809 -6.95958
ltibia 51.3379
lfoot -20.3621 5.85658
ltoes -6.99597
68
root -10.0869 16.8823 -17.0199 -105.773 79.9573 -116.817
lowerback 7.75291 5.53711 7.41278
upperback 0.432584 8.25208 3.24353
thorax -3.32352 4.05 -1.56577
lowerneck -8.5596 -13.9402 -15.4146
upperneck 11.5112 -18.4779 12.2044
head 7.51564 -8.80495 4.33205
rclavicle 3.71727e-014 3.10104e-014
rhumerus 18.3322 -21.0126 -59.1246
rradius 48.503
rwrist -59.6364
rhand -44.0651 12.3525
rfingers 7.12502
rthumb -16.8838 -16.9335
lclavicle 3.71727e-014 3.10104e-014
lhumerus -34.1021 17.9958 68.7071
lradius 24.3452
lwrist -18.1047
lhand 0.19005 33.8906
lfingers 7.12502
lthumb 25.7724 62.1651
rfemur -7.82061 -10.8415 24.7962
rtibia 24.9632
rfoot -22.4799 -19.1557
rtoes 3.5324
lfemur -37.0908 4.49713 -6.38597
ltibia 50.9609
lfoot -20.7186 4.68599
ltoes -1.95174
69
root -10.006 16.8609 -17.0771 -107.453 79.1753 -118.599
lowerback 7.75116 5.3611 7.68389
upperback 0.457623 8.06294 3.48448
thorax -3.31044 3.95998 -1.44798
lowerneck -8.59365 -13.9175 -15.4886
upperneck 11.3621 -18.4292 12.2593
head 7.47888 -8.78275 4.36747
rclavicle 3.51849e-014 2.78299e-014
rhumerus 17.5681 -20.5804 -58.6383
rradius 50.5708
rwrist -61.3772
rhand -50.4425 12.5722
rfingers 7.12502
rthumb -23.0138 -16.0738
lclavicle 3.51849e-014 2.78299e-014
lhumerus -34.3433 18.7999 68.3995
lradius 24.3175
lwrist -18.377
lhand 0.0105057 33.6656
lfingers 7.12502
lthumb 25.6004 61.9649
rfemur -7.1781 -10.3399 25.2848
rtibia 24.3614
rfoot -22.2207 -20.0042
rtoes 1.51823
lfemur -37.3653 4.44615 -5.56724
ltibia 50.7991
lfoot -20.8414 3.54005
ltoes 1.30191
